Coordinates
version=1
nRows=17
nColumns=24
inDegrees=yes

Units are S.I. units (second, meters, Newtons, ...)
Angles are in degrees.

endheader
time	pelvis_tilt	pelvis_list	pelvis_rotation	pelvis_tx	pelvis_ty	pelvis_tz	hip_flexion_r	hip_adduction_r	hip_rotation_r	knee_angle_r	ankle_angle_r	subtalar_angle_r	mtp_angle_r	hip_flexion_l	hip_adduction_l	hip_rotation_l	knee_angle_l	ankle_angle_l	subtalar_angle_l	mtp_angle_l	lumbar_extension	lumbar_bending	lumbar_rotation
      4.21500000	     -8.32827408	     -9.76425785	      2.31928186	     -0.82852287	     -0.01652389	      0.63384727	     13.93069490	     12.01909712	     -5.74772591	    -10.89092670	     -0.48268656	     -2.69202875	      4.23228715	     28.41165041	    -15.85850422	     -6.47780614	    -68.54889383	     -9.13251610	     16.57482793	     21.10493027	      4.91889468	     10.26247230	     -2.37398701
      4.22000000	     -8.33804912	     -9.48915440	      1.88567528	     -0.82197941	     -0.01566047	      0.63438554	     13.09368775	     11.89363365	     -5.21550753	    -10.27808350	     -0.34132515	     -2.45043083	      4.29106347	     29.11704480	    -15.67596254	     -6.95834749	    -68.15878147	     -8.98316911	     17.11729593	     21.34899340	      4.85950382	     10.02561410	     -1.81203035
      4.22500000	     -8.34587360	     -9.22010107	      1.44675933	     -0.81545552	     -0.01488850	      0.63489686	     12.27383983	     11.75762625	     -4.69530489	     -9.69375903	     -0.19476164	     -2.19449074	      4.33553638	     29.80491686	    -15.50327179	     -7.44787502	    -67.70757544	     -8.83115048	     17.62308273	     21.50989031	      4.79494980	      9.79839397	     -1.23135293
      4.23000000	     -8.36604582	     -8.94988790	      1.01314851	     -0.80892600	     -0.01421310	      0.63541384	     11.48689423	     11.60533071	     -4.22368616	     -9.13666739	     -0.04839613	     -1.93480718	      4.36726398	     30.48608602	    -15.32622592	     -7.92122960	    -67.18447150	     -8.65928583	     18.14487342	     21.61056263	      4.75072028	      9.56673503	     -0.67161837
      4.23500000	     -8.36391000	     -8.68089953	      0.53947659	     -0.80242110	     -0.01360732	      0.63594665	     10.68611214	     11.44725239	     -3.67315834	     -8.59928138	      0.11537437	     -1.67352222	      4.39261281	     31.11140422	    -15.18017315	     -8.45521801	    -66.60186387	     -8.49218170	     18.54433961	     21.62608815	      4.67104005	      9.34670673	     -0.06703943
      4.24000000	     -8.35629190	     -8.42133570	      0.06916976	     -0.79592936	     -0.01309055	      0.63647268	      9.89552345	     11.28460552	     -3.12698213	     -8.08173966	      0.28083542	     -1.43129318	      4.40542628	     31.71519249	    -15.04696265	     -8.98508561	    -65.95980491	     -8.31690768	     18.88750458	     21.56506433	      4.58562510	      9.13579613	      0.52714067
      4.24500000	     -8.34571077	     -8.16965609	     -0.40255364	     -0.78945039	     -0.01266399	      0.63699347	      9.11780609	     11.11608604	     -2.58174921	     -7.58539620	      0.45503694	     -1.19732089	      4.41387008	     32.29724688	    -14.92817170	     -9.51744570	    -65.25918099	     -8.13273052	     19.17053968	     21.42113070	      4.49715230	      8.93467204	      1.11909672
      4.25000000	     -8.33114392	     -7.92897046	     -0.87454864	     -0.78299581	     -0.01232120	      0.63750986	      8.35392169	     10.94516953	     -2.04588499	     -7.11131952	      0.62796695	     -0.96984876	      4.42130489	     32.85782549	    -14.82446489	    -10.04566409	    -64.50152867	     -7.93917975	     19.38882012	     21.18860221	      4.40230956	      8.74140491	      1.70899733
      4.25500000	     -8.31368381	     -7.69958478	     -1.33793753	     -0.77654623	     -0.01207159	      0.63801182	      7.60343394	     10.77155956	     -1.52255022	     -6.65924921	      0.81263207	     -0.75103687	      4.43484489	     33.39770624	    -14.73285486	    -10.56521465	    -63.68824488	     -7.73556711	     19.54957947	     20.86749416	      4.30553114	      8.56179262	      2.28678307
      4.26000000	     -8.24643479	     -7.50874379	     -1.79144031	     -0.77014260	     -0.01188809	      0.63847489	      6.80935527	     10.62307971	     -0.96932892	     -6.21531108	      0.99331327	     -0.57790699	      4.44275490	     33.87800154	    -14.67800120	    -11.06637235	    -62.84690193	     -7.48307201	     19.63642816	     20.30665758	      4.14532690	      8.42400066	      2.86560629
      4.26500000	     -8.24064883	     -7.30481997	     -2.23306921	     -0.76371877	     -0.01183527	      0.63894371	      6.10918807	     10.44845276	     -0.49229900	     -5.81239683	      1.19745829	     -0.36902815	      4.49132710	     34.39750127	    -14.60467589	    -11.54718436	    -61.92306912	     -7.25376582	     19.72417138	     19.80630718	      4.06412396	      8.26439271	      3.40536555
      4.27000000	     -8.20646100	     -7.11708364	     -2.65644898	     -0.75731583	     -0.01184396	      0.63938010	      5.39332439	     10.27680820	     -0.03293401	     -5.42590999	      1.40235478	     -0.18091795	      4.56339780	     34.86811513	    -14.54101893	    -12.01222098	    -60.94588773	     -6.99943372	     19.77901717	     19.18601522	      3.94861415	      8.12102372	      3.92473035
      4.27500000	     -8.23429751	     -6.91134807	     -3.04979182	     -0.75089446	     -0.01197156	      0.63979834	      4.77370450	     10.07765046	      0.34830876	     -5.08301644	      1.62748863	      0.00516982	      4.64133079	     35.37925614	    -14.43665858	    -12.44187181	    -59.87048823	     -6.80795693	     19.76300479	     18.72720407	      3.91733170	      7.94640278	      4.40446361
      4.28000000	     -8.13803412	     -6.77400315	     -3.42624684	     -0.74449719	     -0.01211882	      0.64016940	      4.01172315	      9.93203864	      0.79948424	     -4.72135604	      1.84303394	      0.13135285	      4.77876559	     35.74705947	    -14.40038898	    -12.84868185	    -58.80013068	     -6.46280590	     19.83749669	     17.77622364	      3.73801405	      7.84121721	      4.85180968
      4.28500000	     -8.13694030	     -6.61878143	     -3.79419113	     -0.73814410	     -0.01241566	      0.64050650	      3.39885947	      9.76211803	      1.18770761	     -4.43407454	      2.10133085	      0.28871352	      4.90057891	     36.19259560	    -14.32858475	    -13.23121619	    -57.62498265	     -6.23224524	     19.78594418	     17.14311973	      3.66263975	      7.72082751	      5.30966845
      4.29000000	     -8.18660399	     -6.46078328	     -4.09193757	     -0.73179521	     -0.01284611	      0.64075820	      2.86375311	      9.58069545	      1.51755370	     -4.17871342	      2.40168436	      0.42322085	      4.97979693	     36.68519270	    -14.19984152	    -13.52997146	    -56.35671393	     -6.09761522	     19.65276000	     16.75136080	      3.65602699	      7.58595680	      5.68134747
      4.29500000	     -8.16114836	     -6.30875824	     -4.42429244	     -0.72543319	     -0.01325576	      0.64103576	      2.26010916	      9.39749527	      1.87243063	     -3.94890068	      2.69552536	      0.55117644	      5.07134261	     37.03741097	    -14.11028217	    -13.89829978	    -55.02314554	     -5.90145193	     19.59465394	     16.21752237	      3.55986339	      7.46146517	      6.10814242
